<?xml version="1.0" encoding="utf-8"?>
<!-- Svg Vector Icons : http://www.onlinewebfonts.com/icon -->
<!DOCTYPE svg PUBLIC "-//W3C//DTD SVG 1.1//EN" "http://www.w3.org/Graphics/SVG/1.1/DTD/svg11.dtd">
<svg version="1.1" xmlns="http://www.w3.org/2000/svg" xmlns:xlink="http://www.w3.org/1999/xlink" x="0px" y="0px" viewBox="0 0 1000 1000" enable-background="new 0 0 1000 1000" xml:space="preserve">
<metadata> Svg Vector Icons : http://www.onlinewebfonts.com/icon </metadata>
<g><path d="M347.7,562.2c-34.4,0-62.2-27.8-62.2-62.2l0,0c0-34.4,27.8-62.2,62.2-62.2h423.6c34.4,0,62.2,27.8,62.2,62.2l0,0c0,34.4-27.9,62.2-62.2,62.2H347.7z"/><path d="M700.6,819.1c0,16.4-5.6,34.6-19,42c-10.5,5.6-21.2,10.9-32.1,15.7c-58.1,25.7-123.1,40.1-191.7,40.1C210.5,916.9,10,730.2,10,500C10,269.8,210.5,83.1,457.8,83.1c70.8,0,137.7,15.3,197.2,42.5c10.3,4.7,20.4,9.8,30.3,15.2c0,0,0,0,0,0c17.7,9.9,19.1,25.6,19.1,42.1c0,32.4-28.2,58.7-63.1,58.7c-5.7,0-11,0.5-16.5-2c-8.2-4.6-16.7-8.8-25.3-12.7c-42.9-19.3-90.9-30.1-141.7-30.1c-179.9,0-325.6,135.7-325.6,303.2c0,167.4,145.8,303.2,325.6,303.2c49.8,0,96.9-10.4,139.1-29c8.2-3.6,16.2-7.5,24-11.7c4.8-2.3,10.9-2.1,16.6-2.1C672.3,760.4,700.6,786.7,700.6,819.1z"/><path d="M746.1,330.1c0-10.3,5.7-20.1,15.6-24.9c9.9-4.8,21.2-3.2,29.2,3.2l171.5,134.9c16.8,13.2,27.6,33.7,27.6,56.8c0,23-10.8,43.5-27.6,56.8L792.5,690.5c-8.4,6.6-20.1,8.2-30.3,3.3c-10.2-5-16.2-15.2-16.2-25.8V330.1L746.1,330.1z"/></g>
</svg>